<?xml version="1.0" encoding="UTF-8" standalone="no"?>
<!DOCTYPE svg PUBLIC "-//W3C//DTD SVG 1.1//EN"
 "http://www.w3.org/Graphics/SVG/1.1/DTD/svg11.dtd">
<!-- Generated by graphviz version 2.34.0 (20131026.1851)
 -->
<!-- Title: controllers_diagram Pages: 1 -->
<svg width="1171pt" height="586pt"
 viewBox="0.00 0.00 1171.39 585.86" xmlns="http://www.w3.org/2000/svg" xmlns:xlink="http://www.w3.org/1999/xlink">
<g id="graph0" class="graph" transform="scale(1 1) rotate(0) translate(4 581.862)">
<title>controllers_diagram</title>
<polygon fill="white" stroke="white" points="-4,4 -4,-581.862 1167.39,-581.862 1167.39,4 -4,4"/>
<!-- _diagram_info -->
<g id="node1" class="node"><title>_diagram_info</title>
<text text-anchor="start" x="653" y="-499" font-family="Times,serif" font-size="13.00">Controllers diagram</text>
<text text-anchor="start" x="653" y="-483.4" font-family="Times,serif" font-size="13.00">Date: Oct 26 2013 &#45; 12:01</text>
<text text-anchor="start" x="653" y="-467.8" font-family="Times,serif" font-size="13.00">Migration version: 20131025021027</text>
<text text-anchor="start" x="653" y="-452.2" font-family="Times,serif" font-size="13.00">Generated by RailRoady 1.1.1</text>
<text text-anchor="start" x="653" y="-436.6" font-family="Times,serif" font-size="13.00">http://railroady.prestonlee.com</text>
</g>
<!-- ApplicationController -->
<g id="node2" class="node"><title>ApplicationController</title>
<path fill="none" stroke="black" d="M214.17,-215.539C214.17,-215.539 392.805,-215.539 392.805,-215.539 398.805,-215.539 404.805,-221.539 404.805,-227.539 404.805,-227.539 404.805,-335.539 404.805,-335.539 404.805,-341.539 398.805,-347.539 392.805,-347.539 392.805,-347.539 214.17,-347.539 214.17,-347.539 208.17,-347.539 202.17,-341.539 202.17,-335.539 202.17,-335.539 202.17,-227.539 202.17,-227.539 202.17,-221.539 208.17,-215.539 214.17,-215.539"/>
<text text-anchor="middle" x="303.488" y="-329.539" font-family="Times,serif" font-size="14.00">ApplicationController</text>
<polyline fill="none" stroke="black" points="202.17,-322.739 404.805,-322.739 "/>
<text text-anchor="start" x="210.17" y="-304.739" font-family="Times,serif" font-size="14.00">_one_time_conditions_valid_50?</text>
<text text-anchor="start" x="210.17" y="-287.939" font-family="Times,serif" font-size="14.00">after_sign_out_path_for</text>
<polyline fill="none" stroke="black" points="202.17,-281.139 404.805,-281.139 "/>
<polyline fill="none" stroke="black" points="202.17,-257.139 404.805,-257.139 "/>
<text text-anchor="start" x="210.17" y="-239.139" font-family="Times,serif" font-size="14.00">_layout</text>
<text text-anchor="start" x="210.17" y="-222.339" font-family="Times,serif" font-size="14.00">user_not_authorized</text>
</g>
<!-- CommentsController -->
<g id="node3" class="node"><title>CommentsController</title>
<path fill="none" stroke="black" d="M417.591,-0.5C417.591,-0.5 596.226,-0.5 596.226,-0.5 602.226,-0.5 608.226,-6.5 608.226,-12.5 608.226,-12.5 608.226,-187.7 608.226,-187.7 608.226,-193.7 602.226,-199.7 596.226,-199.7 596.226,-199.7 417.591,-199.7 417.591,-199.7 411.591,-199.7 405.591,-193.7 405.591,-187.7 405.591,-187.7 405.591,-12.5 405.591,-12.5 405.591,-6.5 411.591,-0.5 417.591,-0.5"/>
<text text-anchor="middle" x="506.908" y="-181.7" font-family="Times,serif" font-size="14.00">CommentsController</text>
<polyline fill="none" stroke="black" points="405.591,-174.9 608.226,-174.9 "/>
<text text-anchor="start" x="413.591" y="-156.9" font-family="Times,serif" font-size="14.00">_one_time_conditions_valid_54?</text>
<text text-anchor="start" x="413.591" y="-140.1" font-family="Times,serif" font-size="14.00">create</text>
<text text-anchor="start" x="413.591" y="-123.3" font-family="Times,serif" font-size="14.00">destroy</text>
<text text-anchor="start" x="413.591" y="-106.5" font-family="Times,serif" font-size="14.00">index</text>
<text text-anchor="start" x="413.591" y="-89.7" font-family="Times,serif" font-size="14.00">new</text>
<text text-anchor="start" x="413.591" y="-72.9" font-family="Times,serif" font-size="14.00">update</text>
<polyline fill="none" stroke="black" points="405.591,-66.1 608.226,-66.1 "/>
<polyline fill="none" stroke="black" points="405.591,-42.1 608.226,-42.1 "/>
<text text-anchor="start" x="413.591" y="-24.1" font-family="Times,serif" font-size="14.00">_layout</text>
<text text-anchor="start" x="413.591" y="-7.3" font-family="Times,serif" font-size="14.00">load_commentable</text>
</g>
<!-- ApplicationController&#45;&gt;CommentsController -->
<g id="edge1" class="edge"><title>ApplicationController&#45;&gt;CommentsController</title>
<path fill="none" stroke="black" d="M377.503,-215.522C385.313,-208.556 393.358,-201.38 401.436,-194.175"/>
<polyline fill="none" stroke="black" points="405.403,-190.637 401.671,-193.965 "/>
</g>
<!-- HomeController -->
<g id="node4" class="node"><title>HomeController</title>
<path fill="none" stroke="black" d="M58.6714,-42.0081C58.6714,-42.0081 142.43,-42.0081 142.43,-42.0081 148.43,-42.0081 154.43,-48.0081 154.43,-54.0081 154.43,-54.0081 154.43,-145.208 154.43,-145.208 154.43,-151.208 148.43,-157.208 142.43,-157.208 142.43,-157.208 58.6714,-157.208 58.6714,-157.208 52.6714,-157.208 46.6714,-151.208 46.6714,-145.208 46.6714,-145.208 46.6714,-54.0081 46.6714,-54.0081 46.6714,-48.0081 52.6714,-42.0081 58.6714,-42.0081"/>
<text text-anchor="middle" x="100.551" y="-139.208" font-family="Times,serif" font-size="14.00">HomeController</text>
<polyline fill="none" stroke="black" points="46.6714,-132.408 154.43,-132.408 "/>
<text text-anchor="start" x="54.6714" y="-114.408" font-family="Times,serif" font-size="14.00">index</text>
<text text-anchor="start" x="54.6714" y="-97.6081" font-family="Times,serif" font-size="14.00">show</text>
<polyline fill="none" stroke="black" points="46.6714,-90.8081 154.43,-90.8081 "/>
<polyline fill="none" stroke="black" points="46.6714,-66.8081 154.43,-66.8081 "/>
<text text-anchor="start" x="54.6714" y="-48.8081" font-family="Times,serif" font-size="14.00">_layout</text>
</g>
<!-- ApplicationController&#45;&gt;HomeController -->
<g id="edge2" class="edge"><title>ApplicationController&#45;&gt;HomeController</title>
<path fill="none" stroke="black" d="M229.649,-215.343C206.187,-194.31 180.592,-171.364 158.424,-151.491"/>
<polyline fill="none" stroke="black" points="154.612,-148.074 158.335,-151.412 "/>
</g>
<!-- PostsController -->
<g id="node6" class="node"><title>PostsController</title>
<path fill="none" stroke="black" d="M12,-361.362C12,-361.362 190.635,-361.362 190.635,-361.362 196.635,-361.362 202.635,-367.362 202.635,-373.362 202.635,-373.362 202.635,-565.362 202.635,-565.362 202.635,-571.362 196.635,-577.362 190.635,-577.362 190.635,-577.362 12,-577.362 12,-577.362 6,-577.362 0,-571.362 0,-565.362 0,-565.362 0,-373.362 0,-373.362 0,-367.362 6,-361.362 12,-361.362"/>
<text text-anchor="middle" x="101.317" y="-559.362" font-family="Times,serif" font-size="14.00">PostsController</text>
<polyline fill="none" stroke="black" points="0,-552.562 202.635,-552.562 "/>
<text text-anchor="start" x="8" y="-534.562" font-family="Times,serif" font-size="14.00">_one_time_conditions_valid_74?</text>
<text text-anchor="start" x="8" y="-517.762" font-family="Times,serif" font-size="14.00">create</text>
<text text-anchor="start" x="8" y="-500.962" font-family="Times,serif" font-size="14.00">destroy</text>
<text text-anchor="start" x="8" y="-484.162" font-family="Times,serif" font-size="14.00">edit</text>
<text text-anchor="start" x="8" y="-467.362" font-family="Times,serif" font-size="14.00">index</text>
<text text-anchor="start" x="8" y="-450.562" font-family="Times,serif" font-size="14.00">new</text>
<text text-anchor="start" x="8" y="-433.762" font-family="Times,serif" font-size="14.00">show</text>
<text text-anchor="start" x="8" y="-416.962" font-family="Times,serif" font-size="14.00">update</text>
<polyline fill="none" stroke="black" points="0,-410.162 202.635,-410.162 "/>
<polyline fill="none" stroke="black" points="0,-386.162 202.635,-386.162 "/>
<text text-anchor="start" x="8" y="-368.162" font-family="Times,serif" font-size="14.00">_layout</text>
</g>
<!-- ApplicationController&#45;&gt;PostsController -->
<g id="edge4" class="edge"><title>ApplicationController&#45;&gt;PostsController</title>
<path fill="none" stroke="black" d="M232.21,-347.759C223.854,-355.521 215.2,-363.561 206.505,-371.639"/>
<polyline fill="none" stroke="black" points="202.777,-375.102 206.44,-371.699 "/>
</g>
<!-- ProjectsController -->
<g id="node7" class="node"><title>ProjectsController</title>
<path fill="none" stroke="black" d="M457.827,-370.251C457.827,-370.251 552.476,-370.251 552.476,-370.251 558.476,-370.251 564.476,-376.251 564.476,-382.251 564.476,-382.251 564.476,-557.451 564.476,-557.451 564.476,-563.451 558.476,-569.451 552.476,-569.451 552.476,-569.451 457.827,-569.451 457.827,-569.451 451.827,-569.451 445.827,-563.451 445.827,-557.451 445.827,-557.451 445.827,-382.251 445.827,-382.251 445.827,-376.251 451.827,-370.251 457.827,-370.251"/>
<text text-anchor="middle" x="505.152" y="-551.451" font-family="Times,serif" font-size="14.00">ProjectsController</text>
<polyline fill="none" stroke="black" points="445.827,-544.651 564.476,-544.651 "/>
<text text-anchor="start" x="453.827" y="-526.651" font-family="Times,serif" font-size="14.00">create</text>
<text text-anchor="start" x="453.827" y="-509.851" font-family="Times,serif" font-size="14.00">destroy</text>
<text text-anchor="start" x="453.827" y="-493.051" font-family="Times,serif" font-size="14.00">edit</text>
<text text-anchor="start" x="453.827" y="-476.251" font-family="Times,serif" font-size="14.00">index</text>
<text text-anchor="start" x="453.827" y="-459.451" font-family="Times,serif" font-size="14.00">new</text>
<text text-anchor="start" x="453.827" y="-442.651" font-family="Times,serif" font-size="14.00">show</text>
<text text-anchor="start" x="453.827" y="-425.851" font-family="Times,serif" font-size="14.00">update</text>
<polyline fill="none" stroke="black" points="445.827,-419.051 564.476,-419.051 "/>
<polyline fill="none" stroke="black" points="445.827,-395.051 564.476,-395.051 "/>
<text text-anchor="start" x="453.827" y="-377.051" font-family="Times,serif" font-size="14.00">_layout</text>
</g>
<!-- ApplicationController&#45;&gt;ProjectsController -->
<g id="edge5" class="edge"><title>ApplicationController&#45;&gt;ProjectsController</title>
<path fill="none" stroke="black" d="M374.303,-347.666C396.297,-368.203 420.386,-390.698 441.835,-410.726"/>
<polyline fill="none" stroke="black" points="445.53,-414.177 441.875,-410.764 "/>
</g>
<!-- OmniauthCallbacksController -->
<g id="node5" class="node"><title>OmniauthCallbacksController</title>
<path fill="none" stroke="black" d="M657,-258.5C657,-258.5 817.745,-258.5 817.745,-258.5 823.745,-258.5 829.745,-264.5 829.745,-270.5 829.745,-270.5 829.745,-361.7 829.745,-361.7 829.745,-367.7 823.745,-373.7 817.745,-373.7 817.745,-373.7 657,-373.7 657,-373.7 651,-373.7 645,-367.7 645,-361.7 645,-361.7 645,-270.5 645,-270.5 645,-264.5 651,-258.5 657,-258.5"/>
<text text-anchor="middle" x="737.373" y="-355.7" font-family="Times,serif" font-size="14.00">OmniauthCallbacksController</text>
<polyline fill="none" stroke="black" points="645,-348.9 829.745,-348.9 "/>
<text text-anchor="start" x="653" y="-330.9" font-family="Times,serif" font-size="14.00">all</text>
<text text-anchor="start" x="653" y="-314.1" font-family="Times,serif" font-size="14.00">twitter</text>
<polyline fill="none" stroke="black" points="645,-307.3 829.745,-307.3 "/>
<polyline fill="none" stroke="black" points="645,-283.3 829.745,-283.3 "/>
<text text-anchor="start" x="653" y="-265.3" font-family="Times,serif" font-size="14.00">_layout</text>
</g>
<!-- Devise::OmniauthCallbacksController -->
<g id="node8" class="node"><title>Devise::OmniauthCallbacksController</title>
<ellipse fill="none" stroke="black" cx="1003.77" cy="-316.1" rx="159.732" ry="18"/>
<text text-anchor="middle" x="1003.77" y="-310.5" font-family="Times,serif" font-size="14.00">Devise::OmniauthCallbacksController</text>
</g>
<!-- Devise::OmniauthCallbacksController&#45;&gt;OmniauthCallbacksController -->
<g id="edge3" class="edge"><title>Devise::OmniauthCallbacksController&#45;&gt;OmniauthCallbacksController</title>
<path fill="none" stroke="black" d="M843.809,-316.1C840.908,-316.1 838.025,-316.1 835.166,-316.1"/>
<polyline fill="none" stroke="black" points="830.045,-316.1 835.045,-316.1 "/>
</g>
</g>
</svg>
