<?xml version="1.0" encoding="UTF-8" standalone="no"?>
<!DOCTYPE svg PUBLIC "-//W3C//DTD SVG 1.1//EN"
 "http://www.w3.org/Graphics/SVG/1.1/DTD/svg11.dtd">
<!-- Generated by graphviz version 2.34.0 (20131026.1851)
 -->
<!-- Title: models_diagram Pages: 1 -->
<svg width="636pt" height="944pt"
 viewBox="0.00 0.00 636.00 944.00" xmlns="http://www.w3.org/2000/svg" xmlns:xlink="http://www.w3.org/1999/xlink">
<g id="graph0" class="graph" transform="scale(1 1) rotate(0) translate(4 940)">
<title>models_diagram</title>
<polygon fill="white" stroke="white" points="-4,4 -4,-940 632,-940 632,4 -4,4"/>
<!-- _diagram_info -->
<g id="node1" class="node"><title>_diagram_info</title>
<text text-anchor="start" x="7.31226" y="-919" font-family="Times,serif" font-size="13.00">Models diagram</text>
<text text-anchor="start" x="7.31226" y="-903.4" font-family="Times,serif" font-size="13.00">Date: Oct 26 2013 &#45; 12:01</text>
<text text-anchor="start" x="7.31226" y="-887.8" font-family="Times,serif" font-size="13.00">Migration version: 20131025021027</text>
<text text-anchor="start" x="7.31226" y="-872.2" font-family="Times,serif" font-size="13.00">Generated by RailRoady 1.1.1</text>
<text text-anchor="start" x="7.31226" y="-856.6" font-family="Times,serif" font-size="13.00">http://railroady.prestonlee.com</text>
</g>
<!-- Comment -->
<g id="node2" class="node"><title>Comment</title>
<path fill="none" stroke="black" d="M268.102,-1C268.102,-1 405.898,-1 405.898,-1 411.898,-1 417.898,-7 417.898,-13 417.898,-13 417.898,-257 417.898,-257 417.898,-263 411.898,-269 405.898,-269 405.898,-269 268.102,-269 268.102,-269 262.102,-269 256.102,-263 256.102,-257 256.102,-257 256.102,-13 256.102,-13 256.102,-7 262.102,-1 268.102,-1"/>
<text text-anchor="middle" x="337" y="-251" font-family="Times,serif" font-size="14.00">Comment</text>
<polyline fill="none" stroke="black" points="256.102,-244.2 417.898,-244.2 "/>
<text text-anchor="start" x="264.102" y="-226.2" font-family="Times,serif" font-size="14.00">id :integer</text>
<text text-anchor="start" x="264.102" y="-209.4" font-family="Times,serif" font-size="14.00">author :string</text>
<text text-anchor="start" x="264.102" y="-192.6" font-family="Times,serif" font-size="14.00">author_url :string</text>
<text text-anchor="start" x="264.102" y="-175.8" font-family="Times,serif" font-size="14.00">author_email :string</text>
<text text-anchor="start" x="264.102" y="-159" font-family="Times,serif" font-size="14.00">user_ip :string</text>
<text text-anchor="start" x="264.102" y="-142.2" font-family="Times,serif" font-size="14.00">user_agent :string</text>
<text text-anchor="start" x="264.102" y="-125.4" font-family="Times,serif" font-size="14.00">referrer :string</text>
<text text-anchor="start" x="264.102" y="-108.6" font-family="Times,serif" font-size="14.00">content :text</text>
<text text-anchor="start" x="264.102" y="-91.8" font-family="Times,serif" font-size="14.00">approved :boolean</text>
<text text-anchor="start" x="264.102" y="-75" font-family="Times,serif" font-size="14.00">created_at :datetime</text>
<text text-anchor="start" x="264.102" y="-58.2" font-family="Times,serif" font-size="14.00">updated_at :datetime</text>
<text text-anchor="start" x="264.102" y="-41.4" font-family="Times,serif" font-size="14.00">commentable_id :integer</text>
<text text-anchor="start" x="264.102" y="-24.6" font-family="Times,serif" font-size="14.00">commentable_type :string</text>
<text text-anchor="start" x="264.102" y="-7.8" font-family="Times,serif" font-size="14.00">published :boolean</text>
</g>
<!-- Home -->
<g id="node3" class="node"><title>Home</title>
<path fill="none" stroke="black" d="M163.495,-612.4C163.495,-612.4 272.505,-612.4 272.505,-612.4 278.505,-612.4 284.505,-618.4 284.505,-624.4 284.505,-624.4 284.505,-683.6 284.505,-683.6 284.505,-689.6 278.505,-695.6 272.505,-695.6 272.505,-695.6 163.495,-695.6 163.495,-695.6 157.495,-695.6 151.495,-689.6 151.495,-683.6 151.495,-683.6 151.495,-624.4 151.495,-624.4 151.495,-618.4 157.495,-612.4 163.495,-612.4"/>
<text text-anchor="middle" x="218" y="-677.6" font-family="Times,serif" font-size="14.00">Home</text>
<polyline fill="none" stroke="black" points="151.495,-670.8 284.505,-670.8 "/>
<text text-anchor="start" x="159.495" y="-652.8" font-family="Times,serif" font-size="14.00">id :integer</text>
<text text-anchor="start" x="159.495" y="-636" font-family="Times,serif" font-size="14.00">created_at :datetime</text>
<text text-anchor="start" x="159.495" y="-619.2" font-family="Times,serif" font-size="14.00">updated_at :datetime</text>
</g>
<!-- Post -->
<g id="node4" class="node"><title>Post</title>
<path fill="none" stroke="black" d="M282.495,-306.8C282.495,-306.8 391.505,-306.8 391.505,-306.8 397.505,-306.8 403.505,-312.8 403.505,-318.8 403.505,-318.8 403.505,-445.2 403.505,-445.2 403.505,-451.2 397.505,-457.2 391.505,-457.2 391.505,-457.2 282.495,-457.2 282.495,-457.2 276.495,-457.2 270.495,-451.2 270.495,-445.2 270.495,-445.2 270.495,-318.8 270.495,-318.8 270.495,-312.8 276.495,-306.8 282.495,-306.8"/>
<text text-anchor="middle" x="337" y="-439.2" font-family="Times,serif" font-size="14.00">Post</text>
<polyline fill="none" stroke="black" points="270.495,-432.4 403.505,-432.4 "/>
<text text-anchor="start" x="278.495" y="-414.4" font-family="Times,serif" font-size="14.00">id :integer</text>
<text text-anchor="start" x="278.495" y="-397.6" font-family="Times,serif" font-size="14.00">title :string</text>
<text text-anchor="start" x="278.495" y="-380.8" font-family="Times,serif" font-size="14.00">body :text</text>
<text text-anchor="start" x="278.495" y="-364" font-family="Times,serif" font-size="14.00">created_at :datetime</text>
<text text-anchor="start" x="278.495" y="-347.2" font-family="Times,serif" font-size="14.00">updated_at :datetime</text>
<text text-anchor="start" x="278.495" y="-330.4" font-family="Times,serif" font-size="14.00">author_id :integer</text>
<text text-anchor="start" x="278.495" y="-313.6" font-family="Times,serif" font-size="14.00">published :boolean</text>
</g>
<!-- Post&#45;&gt;Comment -->
<g id="edge3" class="edge"><title>Post&#45;&gt;Comment</title>
<path fill="none" stroke="#1c9dc2" d="M337,-298.354C337,-292.203 337,-285.901 337,-279.521"/>
<ellipse fill="none" stroke="#1c9dc2" cx="337" cy="-302.494" rx="4" ry="4"/>
<polygon fill="#1c9dc2" stroke="#1c9dc2" points="337,-279.441 341.5,-269.441 337,-274.441 337,-269.441 337,-269.441 337,-269.441 337,-274.441 332.5,-269.442 337,-279.441 337,-279.441"/>
</g>
<!-- Project -->
<g id="node5" class="node"><title>Project</title>
<path fill="none" stroke="black" d="M481.65,-323.6C481.65,-323.6 616.35,-323.6 616.35,-323.6 622.35,-323.6 628.35,-329.6 628.35,-335.6 628.35,-335.6 628.35,-428.4 628.35,-428.4 628.35,-434.4 622.35,-440.4 616.35,-440.4 616.35,-440.4 481.65,-440.4 481.65,-440.4 475.65,-440.4 469.65,-434.4 469.65,-428.4 469.65,-428.4 469.65,-335.6 469.65,-335.6 469.65,-329.6 475.65,-323.6 481.65,-323.6"/>
<text text-anchor="middle" x="549" y="-422.4" font-family="Times,serif" font-size="14.00">Project</text>
<polyline fill="none" stroke="black" points="469.65,-415.6 628.35,-415.6 "/>
<text text-anchor="start" x="477.65" y="-397.6" font-family="Times,serif" font-size="14.00">id :integer</text>
<text text-anchor="start" x="477.65" y="-380.8" font-family="Times,serif" font-size="14.00">name :string</text>
<text text-anchor="start" x="477.65" y="-364" font-family="Times,serif" font-size="14.00">technologies_used :string</text>
<text text-anchor="start" x="477.65" y="-347.2" font-family="Times,serif" font-size="14.00">created_at :datetime</text>
<text text-anchor="start" x="477.65" y="-330.4" font-family="Times,serif" font-size="14.00">updated_at :datetime</text>
</g>
<!-- Project&#45;&gt;Comment -->
<g id="edge5" class="edge"><title>Project&#45;&gt;Comment</title>
<path fill="none" stroke="#59c162" d="M493.812,-317.221C472.648,-292.763 447.945,-264.215 424.49,-237.109"/>
<ellipse fill="none" stroke="#59c162" cx="496.678" cy="-320.534" rx="4.00002" ry="4.00002"/>
<polygon fill="#59c162" stroke="#59c162" points="424.455,-237.068 421.314,-226.561 421.183,-233.287 417.911,-229.506 417.911,-229.506 417.911,-229.506 421.183,-233.287 414.508,-232.451 424.455,-237.068 424.455,-237.068"/>
</g>
<!-- User -->
<g id="node6" class="node"><title>User</title>
<path fill="none" stroke="black" d="M352.722,-494.8C352.722,-494.8 533.278,-494.8 533.278,-494.8 539.278,-494.8 545.278,-500.8 545.278,-506.8 545.278,-506.8 545.278,-801.2 545.278,-801.2 545.278,-807.2 539.278,-813.2 533.278,-813.2 533.278,-813.2 352.722,-813.2 352.722,-813.2 346.722,-813.2 340.722,-807.2 340.722,-801.2 340.722,-801.2 340.722,-506.8 340.722,-506.8 340.722,-500.8 346.722,-494.8 352.722,-494.8"/>
<text text-anchor="middle" x="443" y="-795.2" font-family="Times,serif" font-size="14.00">User</text>
<polyline fill="none" stroke="black" points="340.722,-788.4 545.278,-788.4 "/>
<text text-anchor="start" x="348.722" y="-770.4" font-family="Times,serif" font-size="14.00">id :integer</text>
<text text-anchor="start" x="348.722" y="-753.6" font-family="Times,serif" font-size="14.00">email :string</text>
<text text-anchor="start" x="348.722" y="-736.8" font-family="Times,serif" font-size="14.00">encrypted_password :string</text>
<text text-anchor="start" x="348.722" y="-720" font-family="Times,serif" font-size="14.00">reset_password_token :string</text>
<text text-anchor="start" x="348.722" y="-703.2" font-family="Times,serif" font-size="14.00">reset_password_sent_at :datetime</text>
<text text-anchor="start" x="348.722" y="-686.4" font-family="Times,serif" font-size="14.00">remember_created_at :datetime</text>
<text text-anchor="start" x="348.722" y="-669.6" font-family="Times,serif" font-size="14.00">sign_in_count :integer</text>
<text text-anchor="start" x="348.722" y="-652.8" font-family="Times,serif" font-size="14.00">current_sign_in_at :datetime</text>
<text text-anchor="start" x="348.722" y="-636" font-family="Times,serif" font-size="14.00">last_sign_in_at :datetime</text>
<text text-anchor="start" x="348.722" y="-619.2" font-family="Times,serif" font-size="14.00">current_sign_in_ip :string</text>
<text text-anchor="start" x="348.722" y="-602.4" font-family="Times,serif" font-size="14.00">last_sign_in_ip :string</text>
<text text-anchor="start" x="348.722" y="-585.6" font-family="Times,serif" font-size="14.00">created_at :datetime</text>
<text text-anchor="start" x="348.722" y="-568.8" font-family="Times,serif" font-size="14.00">updated_at :datetime</text>
<text text-anchor="start" x="348.722" y="-552" font-family="Times,serif" font-size="14.00">role :string</text>
<text text-anchor="start" x="348.722" y="-535.2" font-family="Times,serif" font-size="14.00">provider :string</text>
<text text-anchor="start" x="348.722" y="-518.4" font-family="Times,serif" font-size="14.00">uid :string</text>
<text text-anchor="start" x="348.722" y="-501.6" font-family="Times,serif" font-size="14.00">name :string</text>
</g>
<!-- User&#45;&gt;Post -->
<g id="edge7" class="edge"><title>User&#45;&gt;Post</title>
<path fill="none" stroke="#575e05" d="M377.929,-487.252C375.221,-480.355 372.557,-473.57 369.968,-466.976"/>
<ellipse fill="none" stroke="#575e05" cx="379.418" cy="-491.045" rx="4.00001" ry="4.00001"/>
<polygon fill="#575e05" stroke="#575e05" points="369.887,-466.768 370.421,-455.815 368.06,-462.114 366.232,-457.46 366.232,-457.46 366.232,-457.46 368.06,-462.114 362.044,-459.104 369.887,-466.768 369.887,-466.768"/>
</g>
<!-- ActiveRecord::Base -->
<g id="node7" class="node"><title>ActiveRecord::Base</title>
<ellipse fill="none" stroke="black" cx="313" cy="-893" rx="88.2033" ry="18"/>
<text text-anchor="middle" x="313" y="-887.4" font-family="Times,serif" font-size="14.00">ActiveRecord::Base</text>
</g>
<!-- ActiveRecord::Base&#45;&gt;Comment -->
<g id="edge1" class="edge"><title>ActiveRecord::Base&#45;&gt;Comment</title>
<path fill="none" stroke="black" d="M276.556,-876.566C227.521,-855.63 145.938,-820.124 142,-814 65.0819,-694.372 106.899,-631.823 142,-494 163.835,-408.265 210.842,-320.898 253.231,-253.935"/>
<polyline fill="none" stroke="black" points="256.016,-249.554 253.333,-253.774 "/>
</g>
<!-- ActiveRecord::Base&#45;&gt;Home -->
<g id="edge2" class="edge"><title>ActiveRecord::Base&#45;&gt;Home</title>
<path fill="none" stroke="black" d="M306.168,-874.956C291.714,-838.896 257.62,-753.841 236.315,-700.692"/>
<polyline fill="none" stroke="black" points="234.422,-695.969 236.283,-700.611 "/>
</g>
<!-- ActiveRecord::Base&#45;&gt;Post -->
<g id="edge4" class="edge"><title>ActiveRecord::Base&#45;&gt;Post</title>
<path fill="none" stroke="black" d="M313.812,-874.773C316.829,-810.799 327.509,-584.291 333.263,-462.262"/>
<polyline fill="none" stroke="black" points="333.499,-457.249 333.263,-462.243 "/>
</g>
<!-- ActiveRecord::Base&#45;&gt;Project -->
<g id="edge6" class="edge"><title>ActiveRecord::Base&#45;&gt;Project</title>
<path fill="none" stroke="black" d="M398.729,-888.573C452.758,-881.427 518.753,-862.455 554,-814 633.356,-704.908 598.468,-535.73 570.884,-445.189"/>
<polyline fill="none" stroke="black" points="569.412,-440.406 570.883,-445.184 "/>
</g>
<!-- ActiveRecord::Base&#45;&gt;User -->
<g id="edge8" class="edge"><title>ActiveRecord::Base&#45;&gt;User</title>
<path fill="none" stroke="black" d="M322.349,-874.956C329.772,-861.423 340.98,-840.99 353.627,-817.933"/>
<polyline fill="none" stroke="black" points="356.175,-813.288 353.771,-817.672 "/>
</g>
</g>
</svg>
