<?xml version="1.0" encoding="UTF-8" standalone="no"?>
<!DOCTYPE svg PUBLIC "-//W3C//DTD SVG 1.1//EN"
 "http://www.w3.org/Graphics/SVG/1.1/DTD/svg11.dtd">
<!-- Generated by graphviz version 2.34.0 (20131026.1851)
 -->
<!-- Title: models_diagram Pages: 1 -->
<svg width="465pt" height="310pt"
 viewBox="0.00 0.00 465.00 310.00" xmlns="http://www.w3.org/2000/svg" xmlns:xlink="http://www.w3.org/1999/xlink">
<g id="graph0" class="graph" transform="scale(1 1) rotate(0) translate(4 306)">
<title>models_diagram</title>
<polygon fill="white" stroke="white" points="-4,4 -4,-306 461,-306 461,4 -4,4"/>
<!-- _diagram_info -->
<g id="node1" class="node"><title>_diagram_info</title>
<text text-anchor="start" x="7.31226" y="-285" font-family="Times,serif" font-size="13.00">Models diagram</text>
<text text-anchor="start" x="7.31226" y="-269.4" font-family="Times,serif" font-size="13.00">Date: Oct 26 2013 &#45; 12:01</text>
<text text-anchor="start" x="7.31226" y="-253.8" font-family="Times,serif" font-size="13.00">Migration version: 20131025021027</text>
<text text-anchor="start" x="7.31226" y="-238.2" font-family="Times,serif" font-size="13.00">Generated by RailRoady 1.1.1</text>
<text text-anchor="start" x="7.31226" y="-222.6" font-family="Times,serif" font-size="13.00">http://railroady.prestonlee.com</text>
</g>
<!-- Comment -->
<g id="node2" class="node"><title>Comment</title>
<ellipse fill="none" stroke="black" cx="320" cy="-18" rx="49.1903" ry="18"/>
<text text-anchor="middle" x="320" y="-12.4" font-family="Times,serif" font-size="14.00">Comment</text>
</g>
<!-- Home -->
<g id="node3" class="node"><title>Home</title>
<ellipse fill="none" stroke="black" cx="250" cy="-162" rx="34.4542" ry="18"/>
<text text-anchor="middle" x="250" y="-156.4" font-family="Times,serif" font-size="14.00">Home</text>
</g>
<!-- Post -->
<g id="node4" class="node"><title>Post</title>
<ellipse fill="none" stroke="black" cx="320" cy="-90" rx="27.5142" ry="18"/>
<text text-anchor="middle" x="320" y="-84.4" font-family="Times,serif" font-size="14.00">Post</text>
</g>
<!-- Post&#45;&gt;Comment -->
<g id="edge3" class="edge"><title>Post&#45;&gt;Comment</title>
<path fill="none" stroke="#21606b" d="M320,-63.6398C320,-58.0629 320,-52.1319 320,-46.4761"/>
<ellipse fill="none" stroke="#21606b" cx="320" cy="-67.6966" rx="4" ry="4"/>
<polygon fill="#21606b" stroke="#21606b" points="320,-46.1043 324.5,-36.1043 320,-41.1043 320,-36.1043 320,-36.1043 320,-36.1043 320,-41.1043 315.5,-36.1044 320,-46.1043 320,-46.1043"/>
</g>
<!-- Project -->
<g id="node5" class="node"><title>Project</title>
<ellipse fill="none" stroke="black" cx="419" cy="-90" rx="38.0859" ry="18"/>
<text text-anchor="middle" x="419" y="-84.4" font-family="Times,serif" font-size="14.00">Project</text>
</g>
<!-- Project&#45;&gt;Comment -->
<g id="edge5" class="edge"><title>Project&#45;&gt;Comment</title>
<path fill="none" stroke="#ae9207" d="M391.952,-69.8753C378.937,-60.6724 363.293,-49.6115 349.922,-40.1571"/>
<ellipse fill="none" stroke="#ae9207" cx="395.221" cy="-72.1866" rx="4.00002" ry="4.00002"/>
<polygon fill="#ae9207" stroke="#ae9207" points="349.679,-39.9852 344.112,-30.5376 345.597,-37.0985 341.514,-34.2119 341.514,-34.2119 341.514,-34.2119 345.597,-37.0985 338.916,-37.8862 349.679,-39.9852 349.679,-39.9852"/>
</g>
<!-- User -->
<g id="node6" class="node"><title>User</title>
<ellipse fill="none" stroke="black" cx="370" cy="-162" rx="28.9087" ry="18"/>
<text text-anchor="middle" x="370" y="-156.4" font-family="Times,serif" font-size="14.00">User</text>
</g>
<!-- User&#45;&gt;Post -->
<g id="edge7" class="edge"><title>User&#45;&gt;Post</title>
<path fill="none" stroke="#325195" d="M354.003,-138.605C348.69,-131.165 342.749,-122.849 337.339,-115.275"/>
<ellipse fill="none" stroke="#325195" cx="356.329" cy="-141.861" rx="4.00002" ry="4.00002"/>
<polygon fill="#325195" stroke="#325195" points="337.113,-114.959 334.963,-104.206 334.207,-110.89 331.301,-106.821 331.301,-106.821 331.301,-106.821 334.207,-110.89 327.639,-109.437 337.113,-114.959 337.113,-114.959"/>
</g>
<!-- ActiveRecord::Base -->
<g id="node7" class="node"><title>ActiveRecord::Base</title>
<ellipse fill="none" stroke="black" cx="313" cy="-259" rx="88.2033" ry="18"/>
<text text-anchor="middle" x="313" y="-253.4" font-family="Times,serif" font-size="14.00">ActiveRecord::Base</text>
</g>
<!-- ActiveRecord::Base&#45;&gt;Comment -->
<g id="edge1" class="edge"><title>ActiveRecord::Base&#45;&gt;Comment</title>
<path fill="none" stroke="black" d="M276.781,-242.548C251.88,-229.767 220.745,-208.995 206,-180 198.747,-165.738 200.219,-158.919 206,-144 223.702,-98.32 266.732,-59.1009 294.569,-37.3155"/>
<polyline fill="none" stroke="black" points="298.562,-34.229 294.606,-37.2873 "/>
</g>
<!-- ActiveRecord::Base&#45;&gt;Home -->
<g id="edge2" class="edge"><title>ActiveRecord::Base&#45;&gt;Home</title>
<path fill="none" stroke="black" d="M301.737,-241.016C291.035,-224.878 274.929,-200.591 263.534,-183.409"/>
<polyline fill="none" stroke="black" points="260.745,-179.203 263.509,-183.37 "/>
</g>
<!-- ActiveRecord::Base&#45;&gt;Post -->
<g id="edge4" class="edge"><title>ActiveRecord::Base&#45;&gt;Post</title>
<path fill="none" stroke="black" d="M313.723,-240.757C314.996,-210.381 317.638,-147.355 319.054,-113.562"/>
<polyline fill="none" stroke="black" points="319.271,-108.399 319.061,-113.395 "/>
</g>
<!-- ActiveRecord::Base&#45;&gt;Project -->
<g id="edge6" class="edge"><title>ActiveRecord::Base&#45;&gt;Project</title>
<path fill="none" stroke="black" d="M342.677,-242.013C364.583,-228.531 393.079,-207.108 408,-180 419.323,-159.429 421.122,-132.206 420.689,-113.308"/>
<polyline fill="none" stroke="black" points="420.514,-108.211 420.686,-113.208 "/>
</g>
<!-- ActiveRecord::Base&#45;&gt;User -->
<g id="edge8" class="edge"><title>ActiveRecord::Base&#45;&gt;User</title>
<path fill="none" stroke="black" d="M323.19,-241.016C332.791,-225.015 347.199,-201.002 357.492,-183.847"/>
<polyline fill="none" stroke="black" points="360.278,-179.203 357.706,-183.49 "/>
</g>
</g>
</svg>
